<?xml version="1.0" standalone="no"?>
<!DOCTYPE svg PUBLIC "-//W3C//DTD SVG 20010904//EN"
 "http://www.w3.org/TR/2001/REC-SVG-20010904/DTD/svg10.dtd">
<svg version="1.0" xmlns="http://www.w3.org/2000/svg"
 width="1024.000000pt" height="1024.000000pt" viewBox="0 0 1024.000000 1024.000000"
 preserveAspectRatio="xMidYMid meet">
<metadata>
Created by potrace 1.14, written by Peter Selinger 2001-2017
</metadata>
<g transform="translate(0.000000,1024.000000) scale(0.100000,-0.100000)"
fill="#000000" stroke="none">
<path d="M485 8031 c-71 -24 -107 -70 -120 -156 -10 -64 20 -205 70 -328 25
-61 47 -116 48 -122 1 -5 4 -12 7 -15 3 -3 38 -70 78 -150 80 -159 138 -267
192 -356 19 -31 46 -76 60 -98 38 -63 246 -363 277 -400 10 -12 29 -38 43 -57
28 -39 28 -40 75 -94 19 -22 35 -44 35 -48 0 -4 10 -18 23 -30 13 -12 60 -67
104 -122 45 -55 91 -110 104 -121 13 -12 31 -31 39 -41 80 -105 526 -553 550
-553 5 0 15 -8 22 -18 13 -18 54 -56 172 -157 32 -27 69 -59 81 -70 44 -39
116 -100 128 -107 9 -6 7 -13 -8 -24 -11 -8 -38 -32 -60 -52 -22 -21 -62 -56
-90 -77 -48 -39 -103 -87 -151 -132 -13 -13 -26 -23 -30 -23 -3 0 -18 -13 -32
-28 -15 -15 -37 -35 -50 -44 -92 -63 -573 -528 -687 -664 -27 -32 -63 -72 -80
-89 -17 -16 -44 -48 -60 -70 -17 -21 -38 -47 -47 -56 -16 -17 -93 -123 -176
-242 -23 -34 -50 -72 -60 -84 -48 -62 -211 -313 -243 -375 -12 -23 -28 -48
-35 -56 -8 -7 -14 -19 -14 -27 0 -7 -4 -15 -8 -17 -5 -1 -28 -39 -52 -83 -24
-44 -55 -102 -70 -130 -44 -80 -84 -159 -86 -170 -1 -5 -18 -44 -38 -85 -48
-97 -59 -187 -27 -219 11 -11 32 -23 47 -27 40 -10 130 16 166 48 17 15 34 28
38 28 3 0 15 8 26 17 42 37 84 63 103 63 11 0 24 7 29 16 5 9 12 15 15 15 22
-3 28 1 23 14 -3 10 21 34 77 76 45 34 84 66 85 70 2 5 8 9 13 9 8 0 191 131
209 150 3 3 23 17 45 33 22 15 60 45 83 67 24 22 47 40 51 40 3 0 30 23 58 50
28 27 55 50 59 50 4 0 22 15 39 33 32 33 49 47 126 108 24 19 51 41 59 49 15
14 88 76 147 125 29 24 115 99 157 138 17 16 84 72 149 125 64 52 117 99 117
104 0 4 6 8 14 8 7 0 19 7 26 15 18 22 209 175 217 175 5 0 14 9 21 20 7 11
19 20 26 20 8 0 16 4 18 8 5 13 194 151 323 236 99 66 271 159 360 197 61 25
95 37 95 34 0 -3 12 0 27 6 27 10 136 33 223 47 25 3 106 6 180 6 352 -2 656
-134 904 -392 90 -95 105 -112 117 -134 14 -26 18 -31 62 -83 19 -22 51 -67
72 -99 l37 -60 -63 -59 c-57 -53 -238 -222 -264 -247 -31 -29 -116 -113 -261
-257 -146 -146 -209 -217 -310 -348 -55 -73 -68 -147 -37 -212 l16 -35 196 5
c184 5 248 9 296 21 11 3 49 8 85 11 36 4 82 11 102 16 20 5 40 8 45 7 8 -2
84 7 168 19 22 3 47 5 55 5 8 -1 33 3 55 8 22 5 60 11 85 14 25 2 52 7 60 10
8 3 48 8 87 10 40 3 76 7 81 10 5 3 38 7 73 10 35 3 116 12 179 21 63 8 131
18 150 20 19 3 51 7 70 10 19 2 58 7 85 10 28 3 82 10 120 15 39 6 86 12 105
14 19 3 42 7 50 10 8 3 32 8 53 11 21 3 73 12 115 21 42 9 86 18 97 20 48 9
122 26 151 35 17 5 39 9 51 9 11 0 46 8 79 19 32 10 93 28 134 40 76 22 149
46 185 60 143 57 243 101 350 153 88 43 124 63 210 116 11 6 45 25 75 41 30
16 64 37 75 46 11 9 56 39 100 67 44 28 90 60 102 71 12 11 31 25 42 31 17 9
209 154 279 211 67 53 149 121 158 130 6 6 31 27 54 46 24 18 65 55 92 81 27
25 63 57 81 71 18 14 57 48 87 76 30 28 59 51 64 51 5 0 30 19 55 43 64 59
128 109 160 126 14 8 28 17 31 20 3 3 14 11 25 17 198 109 251 139 310 178 39
25 88 61 109 79 22 17 42 32 45 32 3 0 17 8 31 18 222 160 221 159 239 194 16
31 14 88 -4 103 -19 15 -121 16 -167 1 -18 -5 -59 -12 -91 -15 -31 -3 -63 -8
-70 -13 -6 -4 -1 7 13 24 22 27 111 94 125 93 3 0 14 8 24 18 35 31 48 41 83
59 18 10 44 28 56 39 l23 21 -22 37 c-11 20 -25 36 -31 36 -5 0 -7 4 -4 8 6
10 -61 90 -149 178 -51 52 -145 126 -254 202 -52 37 -126 96 -129 104 -2 4 -8
8 -13 8 -8 0 -44 29 -99 80 -8 8 -34 28 -55 45 -22 16 -45 34 -51 40 -29 28
-114 93 -184 142 -14 9 -52 38 -85 63 -33 25 -72 53 -86 62 -14 9 -33 23 -41
32 -9 8 -31 25 -49 38 -93 65 -129 93 -129 100 0 4 -7 8 -15 8 -9 0 -18 7 -21
15 -3 8 -14 17 -24 20 -10 3 -36 19 -57 35 -69 53 -77 59 -170 120 -51 34 -93
65 -93 71 0 5 -6 9 -13 9 -7 0 -36 16 -66 35 -29 19 -54 35 -56 35 -4 0 -72
43 -90 57 -5 5 -21 14 -35 21 -14 7 -34 18 -45 25 -25 16 -128 71 -135 72 -3
1 -47 22 -99 49 -124 63 -283 127 -449 182 -75 25 -144 46 -152 48 -8 2 -22 6
-30 9 -29 11 -275 70 -301 72 -14 2 -35 7 -45 13 -11 5 -45 12 -77 16 -32 3
-62 8 -66 10 -4 3 -30 8 -57 12 -27 3 -52 8 -55 10 -3 1 -28 6 -55 10 -27 3
-52 8 -55 10 -3 1 -28 6 -55 9 -27 4 -56 8 -64 10 -8 2 -42 7 -75 11 -33 3
-63 8 -67 11 -4 2 -31 6 -60 9 -29 3 -78 11 -110 19 -31 7 -59 11 -61 9 -2 -3
-25 0 -51 6 -25 5 -61 12 -79 14 -63 9 -171 27 -176 30 -3 2 -31 7 -61 11 -30
4 -58 9 -61 11 -4 2 -27 6 -53 8 -26 3 -50 7 -54 10 -4 2 -32 7 -62 11 -30 4
-59 9 -63 12 -5 3 -23 7 -40 9 -36 4 -55 7 -151 23 -38 7 -73 14 -76 16 -4 3
-33 7 -64 10 -32 2 -61 7 -65 10 -5 2 -35 7 -67 10 -32 3 -65 7 -73 10 -9 2
-33 7 -55 9 -21 3 -46 8 -55 10 -35 11 -140 21 -221 21 -71 0 -90 -3 -110 -20
-28 -23 -30 -30 -37 -95 -6 -56 19 -115 80 -187 23 -28 50 -62 60 -76 10 -14
35 -43 55 -65 21 -21 49 -52 63 -68 45 -50 301 -295 425 -406 65 -58 155 -140
198 -181 l80 -76 -45 -48 c-25 -26 -65 -77 -89 -113 -180 -267 -485 -498 -720
-546 -14 -2 -38 -9 -55 -13 -16 -5 -39 -9 -50 -9 -11 -1 -42 -5 -70 -11 -61
-12 -295 -7 -389 8 -62 10 -123 24 -222 50 -41 11 -241 108 -249 121 -4 6 -10
8 -15 5 -4 -3 -10 2 -14 10 -3 8 -12 15 -20 15 -8 0 -21 6 -28 13 -20 19 -97
67 -107 67 -5 0 -11 4 -13 9 -1 5 -35 31 -73 57 -102 71 -274 199 -371 277
-46 37 -86 67 -89 67 -4 0 -28 18 -59 45 -6 6 -34 28 -61 50 -28 22 -67 55
-88 75 -21 19 -48 41 -61 50 -22 15 -71 57 -111 95 -12 11 -43 37 -69 59 -26
21 -82 73 -124 115 -42 42 -103 99 -136 126 -32 28 -72 64 -90 80 -17 17 -52
47 -78 68 -26 21 -53 43 -60 50 -7 7 -29 25 -48 41 -19 15 -79 69 -134 119
-54 51 -105 96 -114 101 -9 5 -26 19 -38 30 -46 46 -110 103 -130 116 -28 20
-138 115 -189 165 -23 22 -61 56 -86 76 -24 21 -58 50 -76 65 -94 85 -123 100
-168 85z"/>
</g>
</svg>
